<svg xmlns="http://www.w3.org/2000/svg" width="500" height="500" viewBox="0 0 500 500" version="1.1"><path d="M 113.168 84.533 C 92.941 88.924, 74.203 106.041, 67.228 126.500 L 64.500 134.500 64.225 246.956 C 63.918 372.490, 63.739 368.725, 70.692 382.854 C 73.478 388.514, 76.540 392.599, 82.478 398.582 C 91.014 407.181, 97.506 411.399, 108 415.167 L 114.500 417.500 276.250 417.771 L 438 418.041 438 387.542 L 438 357.042 418.250 356.771 L 398.500 356.500 397.991 245.500 C 397.428 122.608, 397.929 131.731, 390.992 117.985 C 382.673 101.502, 364.674 87.946, 346.487 84.466 C 335.489 82.362, 122.890 82.423, 113.168 84.533 M 126 146 C 124.026 147.974, 124 149.333, 124 250.277 C 124 341.228, 124.172 352.801, 125.557 354.777 L 127.113 357 229.492 357 C 293.591 357, 332.829 356.635, 334.435 356.025 L 337 355.050 337 250.500 L 337 145.950 334.435 144.975 C 332.829 144.365, 293.747 144, 229.935 144 C 129.333 144, 127.974 144.026, 126 146" stroke="none" fill="#63fbdb" fill-rule="evenodd"/><path d="M 35.609 2.093 C 20.641 7.241, 8.436 19.542, 2.787 35.171 L 0.500 41.500 0.500 250.500 L 0.500 459.500 2.807 465.887 C 7.460 478.771, 17.756 490.558, 29.547 496.500 L 35.500 499.500 251 499.500 L 466.500 499.500 472.500 496.525 C 480.590 492.513, 492.606 480.458, 496.444 472.500 C 498.556 468.123, 499.544 464.201, 500.098 458 C 501.111 446.673, 501.114 51.601, 500.102 42 C 498.280 24.724, 484.177 8.124, 466.168 2.057 C 460.083 0.007, 459.383 0, 250.782 0.033 C 43.246 0.067, 41.451 0.084, 35.609 2.093 M 0.490 250.500 C 0.490 362.150, 0.607 407.677, 0.750 351.670 C 0.893 295.664, 0.893 204.314, 0.750 148.670 C 0.607 93.027, 0.490 138.850, 0.490 250.500 M 113.168 84.533 C 92.941 88.924, 74.203 106.041, 67.228 126.500 L 64.500 134.500 64.225 246.956 C 63.918 372.490, 63.739 368.725, 70.692 382.854 C 73.478 388.514, 76.540 392.599, 82.478 398.582 C 91.014 407.181, 97.506 411.399, 108 415.167 L 114.500 417.500 276.250 417.771 L 438 418.041 438 387.542 L 438 357.042 418.250 356.771 L 398.500 356.500 397.991 245.500 C 397.428 122.608, 397.929 131.731, 390.992 117.985 C 382.673 101.502, 364.674 87.946, 346.487 84.466 C 335.489 82.362, 122.890 82.423, 113.168 84.533 M 126 146 C 124.026 147.974, 124 149.333, 124 250.277 C 124 341.228, 124.172 352.801, 125.557 354.777 L 127.113 357 229.492 357 C 293.591 357, 332.829 356.635, 334.435 356.025 L 337 355.050 337 250.500 L 337 145.950 334.435 144.975 C 332.829 144.365, 293.747 144, 229.935 144 C 129.333 144, 127.974 144.026, 126 146" stroke="none" fill="#0c4474" fill-rule="evenodd"/></svg>